<svg xmlns="http://www.w3.org/2000/svg" xmlns:xlink="http://www.w3.org/1999/xlink" width="66.627" height="63.491" viewBox="0 0 66.627 63.491"><defs><clipPath id="a"><rect width="66.627" height="63.491"></rect></clipPath></defs><g transform="translate(0 0)"><g transform="translate(0 0)" clip-path="url(#a)"><path d="M1.176,53.3H33.315a1.178,1.178,0,0,0,1.176-1.176V47.031h5.095a1.178,1.178,0,0,0,1.176-1.176V6.661a1.176,1.176,0,0,0-.345-.831L34.929.344A1.174,1.174,0,0,0,34.1,0H7.447A1.176,1.176,0,0,0,6.271,1.174V6.269H1.176A1.178,1.178,0,0,0,0,7.445v44.68A1.178,1.178,0,0,0,1.176,53.3M38.409,7.148v.223H33.315V2.35h.3ZM8.623,2.35H30.962v6.2a1.177,1.177,0,0,0,1.176,1.176h6.271V44.678H8.623ZM2.352,8.621H6.271V45.855a1.178,1.178,0,0,0,1.176,1.176H32.139v3.919H2.352Z" transform="translate(0 0)"></path><path d="M7.84,9.621H26.653a1.176,1.176,0,1,0,0-2.352H7.84a1.176,1.176,0,0,0,0,2.352" transform="translate(6.27 6.839)"></path><path d="M7.84,15.275H26.653a1.176,1.176,0,1,0,0-2.352H7.84a1.176,1.176,0,0,0,0,2.352" transform="translate(6.27 12.158)"></path><path d="M7.84,12.448H26.653a1.176,1.176,0,1,0,0-2.352H7.84a1.176,1.176,0,0,0,0,2.352" transform="translate(6.27 9.498)"></path><path d="M7.84,18.1H26.653a1.176,1.176,0,1,0,0-2.352H7.84a1.176,1.176,0,1,0,0,2.352" transform="translate(6.27 14.818)"></path><path d="M44.172,0H23.791a1.175,1.175,0,0,0-1.174,1.176v12.54a1.175,1.175,0,0,0,1.174,1.176H44.172a1.177,1.177,0,0,0,1.176-1.176V1.176A1.177,1.177,0,0,0,44.172,0M43,12.542H24.967V2.352H43Z" transform="translate(21.279 0)"></path><path d="M26.417,6.39H36.607a1.176,1.176,0,0,0,0-2.352H26.417a1.176,1.176,0,1,0,0,2.352" transform="translate(23.748 3.799)"></path><path d="M44.172,9.289H23.791a1.175,1.175,0,0,0-1.174,1.176V23a1.175,1.175,0,0,0,1.174,1.176H44.172A1.177,1.177,0,0,0,45.348,23V10.465a1.177,1.177,0,0,0-1.176-1.176M43,21.831H24.967V11.641H43Z" transform="translate(21.279 8.739)"></path><path d="M26.417,15.679H36.607a1.176,1.176,0,0,0,0-2.352H26.417a1.176,1.176,0,1,0,0,2.352" transform="translate(23.748 12.538)"></path><path d="M44.551,20.194H29.659a1.177,1.177,0,0,0-1.176,1.176v2.742h-.522a5.756,5.756,0,0,0-5.749,5.749v4.181a5.754,5.754,0,0,0,5.749,5.747h.522v.588A4.121,4.121,0,0,0,32.6,44.493h9.015a4.121,4.121,0,0,0,4.115-4.117V21.37a1.175,1.175,0,0,0-1.176-1.176M27.961,37.438a3.4,3.4,0,0,1-3.4-3.4V29.861a3.4,3.4,0,0,1,3.4-3.4h.522V37.438Zm13.652,4.7H32.6a1.766,1.766,0,0,1-1.762-1.764V22.544H43.377V38.223H34.362a1.175,1.175,0,1,0,0,2.35h8.994a1.76,1.76,0,0,1-1.743,1.568" transform="translate(20.898 18.999)"></path><path d="M37.577,29.029H5.976a1.184,1.184,0,0,0-.526.124l-4.8,2.4a1.176,1.176,0,0,0,0,2.1l4.8,2.4a1.184,1.184,0,0,0,.526.124h31.6a3.576,3.576,0,0,0,0-7.152M3.806,32.6l2.449-1.225H33.6v2.449H6.255Zm33.771,1.225H35.952V31.379h1.624a1.225,1.225,0,0,1,0,2.449" transform="translate(0 27.312)"></path></g></g></svg>