<?xml version="1.0" encoding="UTF-8"?>
<!DOCTYPE svg PUBLIC "-//W3C//DTD SVG 1.1//EN" "http://www.w3.org/Graphics/SVG/1.1/DTD/svg11.dtd">
<!-- Creator: CorelDRAW -->
<svg xmlns="http://www.w3.org/2000/svg" xml:space="preserve" width="58.7282mm" height="49.4025mm" version="1.1" style="shape-rendering:geometricPrecision; text-rendering:geometricPrecision; image-rendering:optimizeQuality; fill-rule:evenodd; clip-rule:evenodd"
viewBox="0 0 2097.78 1764.66"
 xmlns:xlink="http://www.w3.org/1999/xlink"
 xmlns:xodm="http://www.corel.com/coreldraw/odm/2003">
 <defs>
  <style type="text/css">
   <![CDATA[
    .fil1 {fill:black}
    .fil0 {fill:black;fill-rule:nonzero}
   ]]>
  </style>
 </defs>
 <g id="Слой_x0020_1">
  <metadata id="CorelCorpID_0Corel-Layer"/>
  <path class="fil0" d="M9.89 1736.09l138.84 -336.1 54.08 0 147.69 360.04 -80.7 0 -27.4 -70.64 -133.55 0 -27.4 70.64 -81.46 0 9.89 -23.94zm1954.22 27.63c-11.23,0 -22.24,-0.92 -33.06,-2.75 -10.66,-1.8 -21.11,-4.55 -31.38,-8.23 -10.37,-3.75 -19.94,-8.42 -28.72,-14.02 -8.92,-5.68 -16.98,-12.26 -24.2,-19.73 -7.45,-7.77 -13.59,-16.45 -18.39,-26.05 -4.77,-9.54 -8.14,-19.77 -10.08,-30.68l-2.78 -15.7 73.79 -19.14 2.38 19.7c0.66,5.44 1.94,10.38 3.82,14.78 1.84,4.32 4.3,8.24 7.35,11.75l0.07 0.07c3.18,3.7 6.8,6.92 10.8,9.63 4.11,2.78 8.84,5.15 14.15,7.12 5.54,2.04 11.31,3.56 17.27,4.56 6,1 12.42,1.5 19.25,1.5 10.04,0 18.88,-1.04 26.54,-3.1 7.08,-1.91 13.18,-4.73 18.3,-8.42l0.03 0.04c4.36,-3.18 7.63,-7.08 9.8,-11.68 2.27,-4.83 3.41,-10.73 3.41,-17.69 0,-4.39 -0.61,-8.29 -1.82,-11.69 -1.16,-3.26 -2.89,-6.2 -5.19,-8.82l-0.07 -0.06c-2.96,-3.42 -6.34,-6.56 -10.1,-9.43 -3.91,-2.99 -8.11,-5.62 -12.59,-7.91l-0.01 0.03c-5.25,-2.65 -11.55,-5.54 -18.87,-8.65 -7.23,-3.07 -15.42,-6.34 -24.53,-9.78l-0.07 0c-9.82,-3.77 -19.44,-7.69 -28.9,-11.78 -9.06,-3.92 -16.76,-7.52 -23.1,-10.8 -7.33,-3.79 -14.16,-8.29 -20.47,-13.47 -6.2,-5.09 -11.84,-10.84 -16.93,-17.26l-0.03 0.02c-5.7,-7.08 -9.95,-14.97 -12.77,-23.66 -2.77,-8.53 -4.15,-17.68 -4.15,-27.43 0,-9.84 1.4,-19.25 4.19,-28.2 2.79,-8.92 7.01,-17.31 12.63,-25.12l0.07 -0.07c5.48,-7.53 11.91,-14.21 19.26,-20.01 7.24,-5.72 15.4,-10.59 24.45,-14.61 8.88,-3.94 18.16,-6.88 27.84,-8.82 9.81,-1.98 19.79,-2.95 29.92,-2.95 12.22,0 23.95,1.18 35.21,3.55 11.29,2.38 21.99,5.99 32.11,10.86 10.22,4.9 19.55,11.03 27.97,18.38 8.44,7.37 15.92,15.86 22.43,25.48l10.32 15.24 -62.38 36.67 -8.72 -15.13c-2.75,-4.77 -5.99,-8.91 -9.72,-12.39 -3.62,-3.38 -7.94,-6.31 -12.95,-8.75l0 -0.07c-5.16,-2.54 -10.61,-4.44 -16.33,-5.72 -5.64,-1.25 -11.8,-1.88 -18.48,-1.88 -4.14,0 -8.14,0.38 -11.94,1.14 -3.95,0.79 -7.53,1.88 -10.74,3.26l-0.07 0.07c-3.24,1.38 -6.14,3.05 -8.72,4.99 -2.48,1.87 -4.62,3.98 -6.42,6.31l-0.02 -0.01c-1.46,1.95 -2.6,4.15 -3.41,6.6 -0.79,2.41 -1.19,5.07 -1.19,7.98 0,3.87 0.54,7.29 1.62,10.25 1.05,2.9 2.64,5.56 4.75,7.96l0.03 -0.03c2.93,3.3 6.1,6.22 9.5,8.77 3.5,2.63 7.47,5.03 11.86,7.19l0.07 0.07c4.88,2.45 10.81,5.14 17.75,8.08 6.2,2.63 14.28,5.85 24.17,9.64l-0.01 0.03c11.26,4.25 21.12,8.2 29.55,11.83 8.79,3.78 16.76,7.52 23.86,11.18 7.52,3.81 14.55,8.42 21.07,13.77 6.61,5.43 12.57,11.51 17.9,18.2l0.06 0.14c5.88,7.53 10.28,15.86 13.16,24.99 2.82,8.94 4.25,18.62 4.25,29.03 0,10.94 -1.53,21.38 -4.61,31.33 -3.09,10 -7.7,19.29 -13.86,27.89 -6.03,8.5 -13.15,16 -21.36,22.46 -8.14,6.4 -17.33,11.81 -27.58,16.22l-0.01 -0.04c-10.02,4.36 -20.58,7.63 -31.67,9.78 -11.06,2.15 -22.59,3.22 -34.58,3.22zm-415.51 0.94c-15.97,0 -30.73,-1.57 -44.28,-4.7 -13.89,-3.2 -26.41,-8.04 -37.56,-14.49 -11.1,-6.46 -20.73,-14.02 -28.93,-22.68l0 -0.07c-8.4,-8.88 -15.21,-18.7 -20.44,-29.44 -5.13,-10.53 -8.97,-21.69 -11.52,-33.43 -2.54,-11.66 -3.8,-23.83 -3.8,-36.47l0 -223.4 76.56 0 0 213.11c0,14.04 1.44,26.34 4.33,36.86 2.74,9.99 6.8,18.56 12.17,25.69l0.07 0.06c4.68,6.28 11.1,11.04 19.26,14.28 9.05,3.59 20.44,5.38 34.15,5.38 24.29,0 42.06,-6.35 53.29,-19.02 11.78,-13.29 17.67,-34.38 17.67,-63.25l0 -213.11 76.56 0 0 221.11c0,13.01 -1.28,25.47 -3.85,37.37 -2.59,12.03 -6.5,23.4 -11.73,34.11 -5.38,11.03 -12.31,21.04 -20.78,29.97 -8.22,8.67 -17.93,16.26 -29.15,22.73l0.02 0.03c-11.23,6.53 -23.81,11.41 -37.75,14.63 -13.58,3.15 -28.35,4.72 -44.28,4.72zm-418.03 -22l0 -122.47 -137.84 -220.21 84.53 0 88.56 145.12 89.13 -145.12 84.25 0 -137.36 220.3 0 139.75 -71.27 0 0 -17.36zm-280.36 -208.13l-18.93 -143.8 83.8 0 -9.57 158.93 -53.31 0 -1.99 -15.12zm-412.47 208.13l0 -342.68 71.99 0 0 165.1 158.27 -165.1 96.29 0 -144.03 147.59 143.19 212.46 -86.67 0 -106.29 -161.92 -60.76 61.78 0 100.14 -71.99 0 0 -17.36zm-301.91 -121.4l79.51 0 -39.44 -102.39 -40.07 102.39z"/>
  <g id="_105553234913600">
   <path class="fil1" d="M1130.65 307.34l460.29 955.94 -317.66 0 -164.53 -361.46 -395.35 0 89.06 -216.51 206.22 0 -157.08 -326.23 -411.53 904.19 -317.67 0c202.08,-419.69 412.09,-839.67 603.77,-1263.28l264.6 0 139.88 307.34z"/>
   <path class="fil1" d="M1383.48 603.17l274.23 -602.52 317.66 0c-146.35,303.95 -296.86,608.03 -441.54,913.55l-150.35 -311.03z"/>
  </g>
 </g>
</svg>
